<?xml version="1.0" encoding="UTF-8"?>
<!DOCTYPE svg PUBLIC "-//W3C//DTD SVG 1.1//EN" "http://www.w3.org/Graphics/SVG/1.1/DTD/svg11.dtd">
<svg xmlns="http://www.w3.org/2000/svg" version="1.1" width="300px" height="300px" style="shape-rendering:geometricPrecision; text-rendering:geometricPrecision; image-rendering:optimizeQuality; fill-rule:evenodd; clip-rule:evenodd" xmlns:xlink="http://www.w3.org/1999/xlink">
<g><path style="opacity:1" fill="#000000" d="M -0.5,-0.5 C 99.5,-0.5 199.5,-0.5 299.5,-0.5C 299.5,99.5 299.5,199.5 299.5,299.5C 199.5,299.5 99.5,299.5 -0.5,299.5C -0.5,199.5 -0.5,99.5 -0.5,-0.5 Z"/></g>
<g><path style="opacity:1" fill="#33fe33" d="M 224.5,107.5 C 226.167,107.5 227.833,107.5 229.5,107.5C 229.667,128.503 229.5,149.503 229,170.5C 227.667,171.833 226.333,171.833 225,170.5C 224.5,149.503 224.333,128.503 224.5,107.5 Z"/></g>
<g><path style="opacity:1" fill="#30ef30" d="M 201.5,114.5 C 192.167,114.5 182.833,114.5 173.5,114.5C 173.5,122.5 173.5,130.5 173.5,138.5C 178.5,138.5 183.5,138.5 188.5,138.5C 189.801,139.884 189.801,141.384 188.5,143C 183.845,143.499 179.179,143.666 174.5,143.5C 174.666,152.506 174.5,161.506 174,170.5C 172.333,171.833 170.667,171.833 169,170.5C 168.333,150.5 168.333,130.5 169,110.5C 180.09,109.347 191.257,109.18 202.5,110C 203.916,111.915 203.582,113.415 201.5,114.5 Z"/></g>
<g><path style="opacity:1" fill="#2fed2f" d="M 208.5,112.5 C 212.935,112.752 214.268,114.919 212.5,119C 206.339,119.878 205.006,117.711 208.5,112.5 Z"/></g>
<g><path style="opacity:1" fill="#2de32d" d="M 241.5,112.5 C 246.214,112.201 247.88,114.201 246.5,118.5C 240.29,119.967 238.623,117.967 241.5,112.5 Z"/></g>
<g><path style="opacity:1" fill="#198519" d="M 201.5,114.5 C 192.682,115.493 183.682,115.827 174.5,115.5C 174.5,122.833 174.5,130.167 174.5,137.5C 179.363,137.181 184.03,137.514 188.5,138.5C 183.5,138.5 178.5,138.5 173.5,138.5C 173.5,130.5 173.5,122.5 173.5,114.5C 182.833,114.5 192.167,114.5 201.5,114.5 Z"/></g>
<g><path style="opacity:1" fill="#2fee2f" d="M 83.5,118.5 C 102.179,118.167 120.845,118.5 139.5,119.5C 142.755,125.008 145.755,130.675 148.5,136.5C 136.157,150.541 123.824,164.541 111.5,178.5C 98.8736,165.251 86.7069,151.584 75,137.5C 74.3333,136.5 74.3333,135.5 75,134.5C 78.1133,129.271 80.9466,123.938 83.5,118.5 Z"/></g>
<g><path style="opacity:1" fill="#030b02" d="M 91.5,124.5 C 95.6463,123.353 99.9796,123.186 104.5,124C 101.651,127.016 98.6511,129.85 95.5,132.5C 94.1252,129.75 92.7918,127.084 91.5,124.5 Z"/></g>
<g><path style="opacity:1" fill="#010701" d="M 118.5,124.5 C 122.646,123.353 126.98,123.186 131.5,124C 130.188,126.941 128.688,129.774 127,132.5C 124.297,129.629 121.464,126.962 118.5,124.5 Z"/></g>
<g><path style="opacity:1" fill="#050d03" d="M 85.5,124.5 C 87.642,126.765 89.3087,129.432 90.5,132.5C 87.5,133.833 84.5,133.833 81.5,132.5C 83.2967,130.045 84.63,127.378 85.5,124.5 Z"/></g>
<g><path style="opacity:1" fill="#010501" d="M 120.5,132.5 C 114.5,133.833 108.5,133.833 102.5,132.5C 105.455,129.884 108.455,127.218 111.5,124.5C 114.52,127.189 117.52,129.856 120.5,132.5 Z"/></g>
<g><path style="opacity:1" fill="#040d02" d="M 135.5,124.5 C 137.945,126.672 139.945,129.338 141.5,132.5C 138.5,133.833 135.5,133.833 132.5,132.5C 134.076,130.021 135.076,127.354 135.5,124.5 Z"/></g>
<g><path style="opacity:1" fill="#2feb2f" d="M 257.5,131.5 C 261.375,130.874 263.209,132.541 263,136.5C 268.265,131.247 274.432,130.081 281.5,133C 287.865,137.373 290.199,143.373 288.5,151C 289.897,164.591 283.897,171.591 270.5,172C 267.438,170.939 264.938,169.106 263,166.5C 262.667,174.5 262.333,182.5 262,190.5C 260.062,191.86 258.396,191.527 257,189.5C 256.18,170.093 256.347,150.76 257.5,131.5 Z"/></g>
<g><path style="opacity:1" fill="#32fc32" d="M 208.5,131.5 C 209.833,131.5 211.167,131.5 212.5,131.5C 212.667,144.504 212.5,157.504 212,170.5C 210.667,171.833 209.333,171.833 208,170.5C 207.187,157.425 207.354,144.425 208.5,131.5 Z"/></g>
<g><path style="opacity:1" fill="#2ee82e" d="M 241.5,131.5 C 243.144,131.286 244.644,131.62 246,132.5C 246.667,145.167 246.667,157.833 246,170.5C 244.333,171.833 242.667,171.833 241,170.5C 240.187,157.425 240.354,144.425 241.5,131.5 Z"/></g>
<g><path style="opacity:1" fill="#1e9b1e" d="M 102.5,132.5 C 108.5,133.833 114.5,133.833 120.5,132.5C 121.043,132.56 121.376,132.893 121.5,133.5C 114.833,134.833 108.167,134.833 101.5,133.5C 101.624,132.893 101.957,132.56 102.5,132.5 Z"/></g>
<g><path style="opacity:1" fill="#010400" d="M 268.5,136.5 C 275.128,135.231 279.961,137.564 283,143.5C 283.861,149.585 283.527,155.585 282,161.5C 275.183,168.435 268.85,168.102 263,160.5C 262.333,154.833 262.333,149.167 263,143.5C 263.967,140.379 265.8,138.046 268.5,136.5 Z"/></g>
<g><path style="opacity:1" fill="#050d02" d="M 82.5,139.5 C 86.0187,138.192 89.6853,138.192 93.5,139.5C 96.6793,146.832 99.5126,154.166 102,161.5C 95.7177,153.906 89.2177,146.573 82.5,139.5 Z"/></g>
<g><path style="opacity:1" fill="#010400" d="M 98.5,138.5 C 107.192,138.169 115.859,138.502 124.5,139.5C 120.436,149.294 116.103,158.96 111.5,168.5C 106.609,158.72 102.276,148.72 98.5,138.5 Z"/></g>
<g><path style="opacity:1" fill="#050e03" d="M 129.5,138.5 C 133.182,138.335 136.848,138.501 140.5,139C 133.313,146.553 126.48,154.386 120,162.5C 123.041,154.56 126.208,146.56 129.5,138.5 Z"/></g>
<g><path style="opacity:1" fill="#07642b" d="M 105.5,40.5 C 151.9,38.6952 187.233,57.3618 211.5,96.5C 210.277,97.6139 208.944,97.7805 207.5,97C 179.096,53.9815 139.43,37.6481 88.5,48C 35.8562,66.432 10.3562,103.599 12,159.5C 20.0752,209.241 48.5752,240.074 97.5,252C 144.875,258.223 181.375,241.39 207,201.5C 208.494,200.253 209.994,200.253 211.5,201.5C 187.254,241.626 151.587,260.126 104.5,257C 58.1227,249.616 27.2894,223.782 12,179.5C 0.0621127,124.561 17.8954,82.3946 65.5,53C 78.2963,46.6764 91.6296,42.5097 105.5,40.5 Z"/></g>
</svg>
