<?xml version="1.0" standalone="no"?>
<!DOCTYPE svg PUBLIC "-//W3C//DTD SVG 1.0//EN" "http://www.w3.org/TR/2001/REC-SVG-20010904/DTD/svg10.dtd">
<svg xmlns="http://www.w3.org/2000/svg" xmlns:xlink="http://www.w3.org/1999/xlink" id="body_1" width="561" height="350">

<g transform="matrix(0.374 0 0 0.374 -0 0.15499637)">
	<g transform="matrix(1 0 0 1 -0.90909094 0.3785425)">
		<g transform="matrix(3.7854252 0 0 3.7854252 0.9716556 -0)">
			<g transform="matrix(1 0 0 1 0.24 -0.1)">
				<g transform="matrix(1 0 0 1 0 0)">
					<g>
						<g transform="matrix(1 0 0 1 0 0)">
						</g>
					</g>
					<g>
						<g transform="matrix(1 0 0 1 0 0)">
							<g transform="matrix(1 0 0 1 75.54432 75.70395)">
								<g transform="matrix(1 0 0 1 0 0)">
									<g>
										<g transform="matrix(0.6270364 0 0 0.6270364 0 0)">
											<g transform="matrix(1 0 0 1 171.18297 0)">
												<g transform="matrix(1 0 0 1 0 0)">
													<g>
														<g transform="matrix(1 0 0 1 0 0)">
															<g>
																<g transform="matrix(1 0 0 1 0 0)">
																	<g transform="matrix(1 0 0 1 0 0)">
																		<g transform="matrix(3.070746 0 0 3.070746 -9.196893 116.68835)">
                                                                            <path transform="matrix(1 0 0 1 0 0)"  d="M5.45 0C 5.016667 0 4.6333337 -0.10000001 4.3 -0.3C 3.9666667 -0.50000006 3.8 -0.8166667 3.8 -1.25L3.8 -1.25L3.8 -35.3C 3.8 -35.7 3.96 -36.010002 4.28 -36.23C 4.5933332 -36.443333 4.9333334 -36.55 5.3 -36.55L5.3 -36.55L23 -36.55C 23.433334 -36.55 23.75 -36.393333 23.95 -36.08C 24.150002 -35.760002 24.250002 -35.433334 24.25 -35.1C 24.250002 -34.666668 24.143335 -34.293335 23.93 -33.98C 23.710001 -33.66 23.400002 -33.5 23 -33.5L23 -33.5L7.1 -33.5L7.1 -19.75L15 -19.75C 15.366667 -19.75 15.66 -19.6 15.88 -19.3C 16.093334 -19 16.2 -18.650002 16.2 -18.25C 16.2 -17.95 16.11 -17.650002 15.93 -17.35C 15.743334 -17.05 15.433333 -16.9 15 -16.9L15 -16.9L7.1 -16.9L7.1 -1.25C 7.1000004 -0.8166667 6.926667 -0.50000006 6.58 -0.3C 6.2266674 -0.10000001 5.8500004 0 5.45 0zM28.4 0C 27.966667 0 27.59 -0.13333334 27.27 -0.4C 26.956667 -0.6666667 26.8 -0.9666667 26.8 -1.3L26.8 -1.3L26.8 -22.45C 26.8 -22.816668 26.956667 -23.11 27.27 -23.33C 27.59 -23.543333 27.966667 -23.65 28.4 -23.65C 28.866669 -23.65 29.256668 -23.543333 29.57 -23.33C 29.89 -23.11 30.05 -22.816668 30.05 -22.45L30.05 -22.45L30.05 -1.3C 30.05 -0.9666667 29.89 -0.6666667 29.57 -0.4C 29.256668 -0.13333334 28.866669 0 28.4 0zM28.4 -30.65C 27.800001 -30.650002 27.283335 -30.86 26.85 -31.28C 26.416668 -31.693333 26.2 -32.183334 26.2 -32.75C 26.2 -33.316666 26.416668 -33.8 26.85 -34.2C 27.283335 -34.600002 27.800001 -34.800003 28.4 -34.8C 29.033335 -34.800003 29.556667 -34.600002 29.97 -34.2C 30.390001 -33.8 30.600002 -33.316666 30.6 -32.75C 30.600002 -32.183334 30.390001 -31.693333 29.97 -31.28C 29.556667 -30.86 29.033335 -30.650002 28.4 -30.65zM38.3 0C 37.86667 0 37.49 -0.13333334 37.17 -0.4C 36.856667 -0.6666667 36.7 -0.9666667 36.7 -1.3L36.7 -1.3L36.7 -36.95C 36.7 -37.316666 36.856667 -37.61 37.17 -37.83C 37.49 -38.043335 37.86667 -38.15 38.3 -38.15C 38.766666 -38.15 39.15667 -38.043335 39.47 -37.83C 39.79 -37.61 39.950005 -37.316666 39.95 -36.95L39.95 -36.95L39.95 -1.3C 39.950005 -0.9666667 39.79 -0.6666667 39.47 -0.4C 39.15667 -0.13333334 38.766666 0 38.3 0zM48.24 0C 47.80667 0 47.433334 -0.13333334 47.12 -0.4C 46.800003 -0.6666667 46.64 -0.9666667 46.64 -1.3L46.64 -1.3L46.64 -22.45C 46.64 -22.816668 46.800003 -23.11 47.12 -23.33C 47.433334 -23.543333 47.80667 -23.65 48.24 -23.65C 48.70667 -23.65 49.1 -23.543333 49.42 -23.33C 49.733337 -23.11 49.890003 -22.816668 49.89 -22.45L49.89 -22.45L49.89 -1.3C 49.890003 -0.9666667 49.733337 -0.6666667 49.42 -0.4C 49.1 -0.13333334 48.70667 0 48.24 0zM48.24 -30.65C 47.640003 -30.650002 47.123337 -30.86 46.69 -31.28C 46.256668 -31.693333 46.04 -32.183334 46.04 -32.75C 46.04 -33.316666 46.256668 -33.8 46.69 -34.2C 47.123337 -34.600002 47.640003 -34.800003 48.24 -34.8C 48.873337 -34.800003 49.4 -34.600002 49.82 -34.2C 50.233334 -33.8 50.440002 -33.316666 50.44 -32.75C 50.440002 -32.183334 50.233334 -31.693333 49.82 -31.28C 49.4 -30.86 48.873337 -30.650002 48.24 -30.65zM57.74 11.6C 57.30667 11.6 56.933334 11.466667 56.62 11.2C 56.3 10.933333 56.14 10.633333 56.14 10.3L56.14 10.3L56.14 -22.45C 56.14 -22.816668 56.3 -23.11 56.62 -23.33C 56.933334 -23.543333 57.30667 -23.65 57.74 -23.65C 58.173332 -23.65 58.54 -23.543333 58.84 -23.33C 59.140003 -23.11 59.29 -22.816668 59.29 -22.45L59.29 -22.45L59.29 -20.15C 59.856667 -21.116667 60.70667 -21.993334 61.84 -22.78C 62.973335 -23.560001 64.35667 -23.95 65.99 -23.95C 67.65666 -23.95 69.166664 -23.526669 70.52 -22.68C 71.86667 -21.826668 72.95 -20.7 73.77 -19.3C 74.58333 -17.900002 74.99 -16.333334 74.99 -14.6L74.99 -14.6L74.99 -9.15C 74.99 -7.5166664 74.58333 -5.9666667 73.77 -4.5C 72.95 -3.0333333 71.87334 -1.86 70.54 -0.98C 69.20667 -0.09333335 67.740005 0.35 66.14 0.35C 64.60667 0.35 63.24 -0.033333346 62.04 -0.8C 60.840004 -1.5666667 59.956673 -2.4666667 59.39 -3.5L59.39 -3.5L59.39 10.3C 59.39 10.633333 59.233334 10.933333 58.92 11.2C 58.6 11.466667 58.206665 11.6 57.74 11.6zM65.54 -2.65C 66.64 -2.65 67.65667 -2.96 68.59 -3.58C 69.52333 -4.1933336 70.28333 -5 70.87 -6C 71.450005 -7 71.740005 -8.05 71.74 -9.15L71.74 -9.15L71.74 -14.6C 71.740005 -15.666668 71.456665 -16.683334 70.89 -17.65C 70.32333 -18.616667 69.56667 -19.41 68.62 -20.03C 67.66667 -20.643333 66.606674 -20.95 65.44 -20.95C 64.44 -20.95 63.483334 -20.693335 62.57 -20.18C 61.65 -19.66 60.890003 -18.933334 60.29 -18C 59.690002 -17.066668 59.39 -15.933334 59.39 -14.6L59.39 -14.6L59.39 -7.6C 59.39 -7.1 59.65667 -6.46 60.19 -5.68C 60.723335 -4.8933334 61.456673 -4.1933336 62.39 -3.58C 63.323334 -2.96 64.37334 -2.65 65.54 -2.65z" stroke="none" fill="#33FF33" fill-rule="nonzero" />
																		</g>
																	</g>
																</g>
															</g>
														</g>
													</g>
												</g>
											</g>
											<g transform="matrix(1 0 0 1 0 21.549974)">
												<g transform="matrix(1 0 0 1 0 0)">
													<g>
														<g transform="matrix(1.3511772 0 0 1.3511772 -0 5.154332E-06)">
                                                            <path d="M87.043 0L50 0L12.957 0L0 23.557L50 81.166L100 23.557L87.043 0zM83.635 6.345L91.225006 20.146L77.58501 20.146L83.635 6.345zM77.168 6.043L71.631 18.679L57.792 6.043L77.168 6.043zM64.273 20.146L50 20.146L35.727 20.146L50 7.113L64.273 20.146zM42.208 6.043L28.37 18.679L22.832 6.043L42.208 6.043zM16.365 6.345L22.415 20.146L8.775 20.146L16.365 6.345zM10.288 26.189L25.064 26.189L40.142 60.587997L10.288 26.189zM31.663 26.189L50 26.189L68.338 26.189L50 68.022L31.663 26.189zM59.857 60.589L74.935 26.190002L89.712 26.190002L59.857 60.589z" stroke="none" fill="#33FF33" fill-rule="nonzero" />
														</g>
													</g>
												</g>
											</g>
										</g>
									</g>
								</g>
							</g>
							<g>
                                <path d="M0 123.6C 0 55.337997 55.338 0 123.6 0C 170.413 0 211.148 26.025 232.125 64.397L232.125 64.397L227.175 64.397C 206.614 28.503002 167.931 4.319004 123.600006 4.319004C 57.723007 4.319004 4.319008 57.723003 4.319008 123.600006C 4.319008 189.477 57.723007 242.88101 123.600006 242.88101C 167.931 242.88101 206.613 218.69801 227.175 182.80301L227.175 182.80301L232.125 182.80301C 211.148 221.17401 170.413 247.20001 123.6 247.20001C 55.337997 247.20001 0 191.86201 0 123.60001L0 123.60001L0 123.6z" stroke="#FFFFFF" stroke-width="1" fill="#096A2E" fill-rule="nonzero" stroke-opacity="0" />
							</g>
						</g>
					</g>
				</g>
			</g>
		</g>
	</g>
</g>
</svg>